<?xml version="1.0" standalone="no"?>
<!DOCTYPE svg PUBLIC "-//W3C//DTD SVG 20010904//EN"
 "http://www.w3.org/TR/2001/REC-SVG-20010904/DTD/svg10.dtd">
<svg version="1.0" xmlns="http://www.w3.org/2000/svg"
 width="180.000000pt" height="180.000000pt" viewBox="0 0 180.000000 180.000000"
 preserveAspectRatio="xMidYMid meet">
<metadata>
Created by potrace 1.14, written by Peter Selinger 2001-2017
</metadata>
<g transform="translate(0.000000,180.000000) scale(0.100000,-0.100000)"
fill="#000000" stroke="none">
<path d="M970 1468 c0 -5 -4 -7 -9 -4 -12 8 -114 -28 -160 -55 -20 -12 -51
-36 -69 -53 -30 -28 -39 -31 -105 -32 -84 -1 -129 -19 -181 -69 -39 -38 -75
-105 -76 -141 0 -26 -13 -37 -59 -53 -119 -40 -212 -183 -207 -317 3 -77 8
-96 46 -175 30 -64 140 -146 220 -165 24 -6 315 -12 650 -13 101 -1 150 -5
140 -11 -12 -7 -10 -9 7 -7 12 0 19 5 17 9 -3 4 2 8 10 8 9 0 16 -5 16 -11 0
-8 6 -7 17 2 11 10 14 10 9 1 -4 -6 -3 -12 3 -12 5 0 12 6 14 13 4 9 8 9 15
-2 8 -11 10 -11 15 0 4 10 6 10 6 2 1 -7 6 -13 12 -13 5 0 7 4 4 10 -4 6 14
10 47 11 71 1 87 4 153 34 78 34 166 125 195 202 42 110 28 230 -38 325 -49
70 -106 113 -205 152 -21 9 -36 20 -33 25 7 11 -8 61 -37 121 -36 75 -156 182
-219 196 -5 1 -9 3 -10 4 -4 4 -49 11 -71 11 -9 0 -15 4 -13 8 3 4 -19 8 -49
8 -30 0 -55 -4 -55 -9z"/>
</g>
</svg>
